<svg xmlns="http://www.w3.org/2000/svg" version="1.1" width="400" height="196">
<path d="M 2.878906 169.319336 L 2.878906 162.412109 L 6.729980 162.412109 L 6.729980 163.335938 L 3.738281 163.335938 L 3.738281 169.319336 Z " fill="rgb(0, 0, 0)" fill-opacity="1.000000" />
<path d="M 2.878906 182.319336 L 2.878906 168.300781 L 3.738281 168.300781 L 3.738281 182.319336 Z " fill="rgb(0, 0, 0)" fill-opacity="1.000000" />
<path d="M 2.878906 189.335938 L 2.878906 181.300781 L 3.738281 181.300781 L 3.738281 188.412109 L 6.729980 188.412109 L 6.729980 189.335938 Z " fill="rgb(0, 0, 0)" fill-opacity="1.000000" />
<path d="M 6.892578 189.335938 L 6.892578 188.412109 L 13.729980 188.412109 L 13.729980 189.335938 Z " fill="rgb(0, 0, 0)" fill-opacity="1.000000" />
<path d="M 13.892578 189.335938 L 13.892578 188.412109 L 20.729980 188.412109 L 20.729980 189.335938 Z " fill="rgb(0, 0, 0)" fill-opacity="1.000000" />
<path d="M 20.892578 189.335938 L 20.892578 188.412109 L 27.729980 188.412109 L 27.729980 189.335938 Z " fill="rgb(0, 0, 0)" fill-opacity="1.000000" />
<path d="M 27.892578 189.335938 L 27.892578 188.412109 L 34.729980 188.412109 L 34.729980 189.335938 Z " fill="rgb(0, 0, 0)" fill-opacity="1.000000" />
<path d="M 34.892578 189.335938 L 34.892578 188.412109 L 41.729980 188.412109 L 41.729980 189.335938 Z " fill="rgb(0, 0, 0)" fill-opacity="1.000000" />
<path d="M 41.892578 189.335938 L 41.892578 188.412109 L 48.729980 188.412109 L 48.729980 189.335938 Z " fill="rgb(0, 0, 0)" fill-opacity="1.000000" />
<path d="M 48.892578 189.335938 L 48.892578 188.412109 L 55.729980 188.412109 L 55.729980 189.335938 Z " fill="rgb(0, 0, 0)" fill-opacity="1.000000" />
<path d="M 55.892578 189.335938 L 55.892578 188.412109 L 62.729980 188.412109 L 62.729980 189.335938 Z " fill="rgb(0, 0, 0)" fill-opacity="1.000000" />
<path d="M 62.892578 189.335938 L 62.892578 188.412109 L 65.878906 188.412109 L 65.878906 181.300781 L 66.738281 181.300781 L 66.738281 189.335938 Z " fill="rgb(0, 0, 0)" fill-opacity="1.000000" />
<path d="M 163.878906 189.335938 L 163.878906 181.300781 L 164.738281 181.300781 L 164.738281 188.412109 L 167.729980 188.412109 L 167.729980 189.335938 Z " fill="rgb(0, 0, 0)" fill-opacity="1.000000" />
<path d="M 167.892578 189.335938 L 167.892578 188.412109 L 174.729980 188.412109 L 174.729980 189.335938 Z " fill="rgb(0, 0, 0)" fill-opacity="1.000000" />
<path d="M 174.892578 189.335938 L 174.892578 188.412109 L 181.729980 188.412109 L 181.729980 189.335938 Z " fill="rgb(0, 0, 0)" fill-opacity="1.000000" />
<path d="M 181.892578 189.335938 L 181.892578 188.412109 L 188.729980 188.412109 L 188.729980 189.335938 Z " fill="rgb(0, 0, 0)" fill-opacity="1.000000" />
<path d="M 188.892578 189.335938 L 188.892578 188.412109 L 195.729980 188.412109 L 195.729980 189.335938 Z " fill="rgb(0, 0, 0)" fill-opacity="1.000000" />
<path d="M 195.892578 189.335938 L 195.892578 188.412109 L 202.729980 188.412109 L 202.729980 189.335938 Z " fill="rgb(0, 0, 0)" fill-opacity="1.000000" />
<path d="M 202.892578 189.335938 L 202.892578 188.412109 L 209.729980 188.412109 L 209.729980 189.335938 Z " fill="rgb(0, 0, 0)" fill-opacity="1.000000" />
<path d="M 209.892578 189.335938 L 209.892578 188.412109 L 216.729980 188.412109 L 216.729980 189.335938 Z " fill="rgb(0, 0, 0)" fill-opacity="1.000000" />
<path d="M 216.892578 189.335938 L 216.892578 188.412109 L 223.729980 188.412109 L 223.729980 189.335938 Z " fill="rgb(0, 0, 0)" fill-opacity="1.000000" />
<path d="M 223.892578 189.335938 L 223.892578 188.412109 L 226.878906 188.412109 L 226.878906 181.300781 L 227.738281 181.300781 L 227.738281 189.335938 Z " fill="rgb(0, 0, 0)" fill-opacity="1.000000" />
<path d="M 22.251465 170.980957 L 26.972656 170.980957 L 26.972656 171.894043 L 23.341797 171.894043 L 23.341797 174.042480 L 26.634277 174.042480 L 26.634277 174.955566 L 23.341797 174.955566 L 23.341797 179.000000 L 22.251465 179.000000 Z " fill="rgb(0, 0, 0)" fill-opacity="1.000000" />
<path d="M 31.861816 176.824707 Q 31.861816 177.490723 32.106201 177.829102 Q 32.350586 178.167480 32.828613 178.167480 L 33.983398 178.167480 L 33.983398 179.000000 L 32.731934 179.000000 Q 31.845703 179.000000 31.359619 178.433350 Q 30.873535 177.866699 30.873535 176.824707 L 30.873535 171.383789 L 29.289062 171.383789 L 29.289062 170.610352 L 31.861816 170.610352 Z " fill="rgb(0, 0, 0)" fill-opacity="1.000000" />
<path d="M 38.308594 173.677246 Q 37.556641 173.677246 37.169922 174.262695 Q 36.783203 174.848145 36.783203 175.997559 Q 36.783203 177.141602 37.169922 177.729736 Q 37.556641 178.317871 38.308594 178.317871 Q 39.065918 178.317871 39.452637 177.729736 Q 39.839355 177.141602 39.839355 175.997559 Q 39.839355 174.848145 39.452637 174.262695 Q 39.065918 173.677246 38.308594 173.677246 Z M 38.308594 172.839355 Q 39.560059 172.839355 40.223389 173.650391 Q 40.886719 174.461426 40.886719 175.997559 Q 40.886719 177.539062 40.226074 178.347412 Q 39.565430 179.155762 38.308594 179.155762 Q 37.057129 179.155762 36.396484 178.347412 Q 35.735840 177.539062 35.735840 175.997559 Q 35.735840 174.461426 36.396484 173.650391 Q 37.057129 172.839355 38.308594 172.839355 Z " fill="rgb(0, 0, 0)" fill-opacity="1.000000" />
<path d="M 42.000000 172.984375 L 42.977539 172.984375 L 44.024902 177.845215 L 44.884277 174.740723 L 45.727539 174.740723 L 46.597656 177.845215 L 47.645020 172.984375 L 48.622559 172.984375 L 47.215332 179.000000 L 46.270020 179.000000 L 45.308594 175.702148 L 44.352539 179.000000 L 43.407227 179.000000 Z " fill="rgb(0, 0, 0)" fill-opacity="1.000000" />
<path d="M 65.878906 182.319336 L 65.878906 168.300781 L 66.738281 168.300781 L 66.738281 182.319336 Z " fill="rgb(0, 0, 0)" fill-opacity="1.000000" />
<path d="M 163.878906 182.319336 L 163.878906 168.300781 L 164.738281 168.300781 L 164.738281 182.319336 Z " fill="rgb(0, 0, 0)" fill-opacity="1.000000" />
<path d="M 183.251465 170.980957 L 187.972656 170.980957 L 187.972656 171.894043 L 184.341797 171.894043 L 184.341797 174.042480 L 187.634277 174.042480 L 187.634277 174.955566 L 184.341797 174.955566 L 184.341797 179.000000 L 183.251465 179.000000 Z " fill="rgb(0, 0, 0)" fill-opacity="1.000000" />
<path d="M 192.861816 176.824707 Q 192.861816 177.490723 193.106201 177.829102 Q 193.350586 178.167480 193.828613 178.167480 L 194.983398 178.167480 L 194.983398 179.000000 L 193.731934 179.000000 Q 192.845703 179.000000 192.359619 178.433350 Q 191.873535 177.866699 191.873535 176.824707 L 191.873535 171.383789 L 190.289062 171.383789 L 190.289062 170.610352 L 192.861816 170.610352 Z " fill="rgb(0, 0, 0)" fill-opacity="1.000000" />
<path d="M 199.308594 173.677246 Q 198.556641 173.677246 198.169922 174.262695 Q 197.783203 174.848145 197.783203 175.997559 Q 197.783203 177.141602 198.169922 177.729736 Q 198.556641 178.317871 199.308594 178.317871 Q 200.065918 178.317871 200.452637 177.729736 Q 200.839355 177.141602 200.839355 175.997559 Q 200.839355 174.848145 200.452637 174.262695 Q 200.065918 173.677246 199.308594 173.677246 Z M 199.308594 172.839355 Q 200.560059 172.839355 201.223389 173.650391 Q 201.886719 174.461426 201.886719 175.997559 Q 201.886719 177.539062 201.226074 178.347412 Q 200.565430 179.155762 199.308594 179.155762 Q 198.057129 179.155762 197.396484 178.347412 Q 196.735840 177.539062 196.735840 175.997559 Q 196.735840 174.461426 197.396484 173.650391 Q 198.057129 172.839355 199.308594 172.839355 Z " fill="rgb(0, 0, 0)" fill-opacity="1.000000" />
<path d="M 203.000000 172.984375 L 203.977539 172.984375 L 205.024902 177.845215 L 205.884277 174.740723 L 206.727539 174.740723 L 207.597656 177.845215 L 208.645020 172.984375 L 209.622559 172.984375 L 208.215332 179.000000 L 207.270020 179.000000 L 206.308594 175.702148 L 205.352539 179.000000 L 204.407227 179.000000 Z " fill="rgb(0, 0, 0)" fill-opacity="1.000000" />
<path d="M 226.878906 182.319336 L 226.878906 168.300781 L 227.738281 168.300781 L 227.738281 182.319336 Z " fill="rgb(0, 0, 0)" fill-opacity="1.000000" />
<path d="M 6.892578 163.335938 L 6.892578 162.412109 L 13.729980 162.412109 L 13.729980 163.335938 Z " fill="rgb(0, 0, 0)" fill-opacity="1.000000" />
<path d="M 13.892578 163.335938 L 13.892578 162.412109 L 20.729980 162.412109 L 20.729980 163.335938 Z " fill="rgb(0, 0, 0)" fill-opacity="1.000000" />
<path d="M 20.892578 163.335938 L 20.892578 162.412109 L 27.729980 162.412109 L 27.729980 163.335938 Z " fill="rgb(0, 0, 0)" fill-opacity="1.000000" />
<path d="M 27.892578 163.335938 L 27.892578 162.412109 L 34.729980 162.412109 L 34.729980 163.335938 Z " fill="rgb(0, 0, 0)" fill-opacity="1.000000" />
<path d="M 34.892578 163.335938 L 34.892578 162.412109 L 41.729980 162.412109 L 41.729980 163.335938 Z " fill="rgb(0, 0, 0)" fill-opacity="1.000000" />
<path d="M 41.892578 163.335938 L 41.892578 162.412109 L 48.729980 162.412109 L 48.729980 163.335938 Z " fill="rgb(0, 0, 0)" fill-opacity="1.000000" />
<path d="M 48.892578 163.335938 L 48.892578 162.412109 L 55.729980 162.412109 L 55.729980 163.335938 Z " fill="rgb(0, 0, 0)" fill-opacity="1.000000" />
<path d="M 55.892578 163.335938 L 55.892578 162.412109 L 62.729980 162.412109 L 62.729980 163.335938 Z " fill="rgb(0, 0, 0)" fill-opacity="1.000000" />
<path d="M 65.878906 169.319336 L 65.878906 163.335938 L 62.892578 163.335938 L 62.892578 162.412109 L 66.738281 162.412109 L 66.738281 169.319336 Z " fill="rgb(0, 0, 0)" fill-opacity="1.000000" />
<path d="M 163.878906 169.319336 L 163.878906 162.412109 L 167.729980 162.412109 L 167.729980 163.335938 L 164.738281 163.335938 L 164.738281 169.319336 Z " fill="rgb(0, 0, 0)" fill-opacity="1.000000" />
<path d="M 167.892578 163.335938 L 167.892578 162.412109 L 174.729980 162.412109 L 174.729980 163.335938 Z " fill="rgb(0, 0, 0)" fill-opacity="1.000000" />
<path d="M 174.892578 163.335938 L 174.892578 162.412109 L 181.729980 162.412109 L 181.729980 163.335938 Z " fill="rgb(0, 0, 0)" fill-opacity="1.000000" />
<path d="M 181.892578 163.335938 L 181.892578 162.412109 L 188.729980 162.412109 L 188.729980 163.335938 Z " fill="rgb(0, 0, 0)" fill-opacity="1.000000" />
<path d="M 188.892578 163.335938 L 188.892578 162.412109 L 195.729980 162.412109 L 195.729980 163.335938 Z " fill="rgb(0, 0, 0)" fill-opacity="1.000000" />
<path d="M 195.892578 163.335938 L 195.892578 162.412109 L 202.729980 162.412109 L 202.729980 163.335938 Z " fill="rgb(0, 0, 0)" fill-opacity="1.000000" />
<path d="M 202.892578 163.335938 L 202.892578 162.412109 L 209.729980 162.412109 L 209.729980 163.335938 Z " fill="rgb(0, 0, 0)" fill-opacity="1.000000" />
<path d="M 209.892578 163.335938 L 209.892578 162.412109 L 216.729980 162.412109 L 216.729980 163.335938 Z " fill="rgb(0, 0, 0)" fill-opacity="1.000000" />
<path d="M 216.892578 163.335938 L 216.892578 162.412109 L 223.729980 162.412109 L 223.729980 163.335938 Z " fill="rgb(0, 0, 0)" fill-opacity="1.000000" />
<path d="M 226.878906 169.319336 L 226.878906 163.335938 L 223.892578 163.335938 L 223.892578 162.412109 L 227.738281 162.412109 L 227.738281 169.319336 Z " fill="rgb(0, 0, 0)" fill-opacity="1.000000" />
<path d="M 37.878906 104.319336 L 37.878906 97.412109 L 41.729980 97.412109 L 41.729980 98.335938 L 38.738281 98.335938 L 38.738281 104.319336 Z " fill="rgb(0, 0, 0)" fill-opacity="1.000000" />
<path d="M 37.878906 117.319336 L 37.878906 103.300781 L 38.738281 103.300781 L 38.738281 117.319336 Z " fill="rgb(0, 0, 0)" fill-opacity="1.000000" />
<path d="M 37.878906 130.319336 L 37.878906 116.300781 L 38.738281 116.300781 L 38.738281 130.319336 Z " fill="rgb(0, 0, 0)" fill-opacity="1.000000" />
<path d="M 37.878906 143.319336 L 37.878906 129.300781 L 38.738281 129.300781 L 38.738281 143.319336 Z " fill="rgb(0, 0, 0)" fill-opacity="1.000000" />
<path d="M 38.308594 153.418945 L 35.032227 146.866211 L 41.590332 146.866211 Z " fill="rgb(0, 0, 0)" fill-opacity="1.000000" />
<path d="M 199.308594 153.418945 L 196.032227 146.866211 L 202.590332 146.866211 Z " fill="rgb(0, 0, 0)" fill-opacity="1.000000" />
<path d="M 65.878906 111.335938 L 65.878906 103.300781 L 66.738281 103.300781 L 66.738281 110.412109 L 69.729980 110.412109 L 69.729980 111.335938 Z " fill="rgb(0, 0, 0)" fill-opacity="1.000000" />
<path d="M 198.878906 130.319336 L 198.878906 116.300781 L 199.738281 116.300781 L 199.738281 130.319336 Z " fill="rgb(0, 0, 0)" fill-opacity="1.000000" />
<path d="M 198.878906 143.319336 L 198.878906 129.300781 L 199.738281 129.300781 L 199.738281 143.319336 Z " fill="rgb(0, 0, 0)" fill-opacity="1.000000" />
<path d="M 69.892578 111.335938 L 69.892578 110.412109 L 76.729980 110.412109 L 76.729980 111.335938 Z " fill="rgb(0, 0, 0)" fill-opacity="1.000000" />
<path d="M 76.892578 111.335938 L 76.892578 110.412109 L 83.729980 110.412109 L 83.729980 111.335938 Z " fill="rgb(0, 0, 0)" fill-opacity="1.000000" />
<path d="M 83.892578 111.335938 L 83.892578 110.412109 L 90.729980 110.412109 L 90.729980 111.335938 Z " fill="rgb(0, 0, 0)" fill-opacity="1.000000" />
<path d="M 90.892578 111.335938 L 90.892578 110.412109 L 97.729980 110.412109 L 97.729980 111.335938 Z " fill="rgb(0, 0, 0)" fill-opacity="1.000000" />
<path d="M 97.892578 111.335938 L 97.892578 110.412109 L 104.729980 110.412109 L 104.729980 111.335938 Z " fill="rgb(0, 0, 0)" fill-opacity="1.000000" />
<path d="M 104.892578 111.335938 L 104.892578 110.412109 L 111.729980 110.412109 L 111.729980 111.335938 Z " fill="rgb(0, 0, 0)" fill-opacity="1.000000" />
<path d="M 111.892578 111.335938 L 111.892578 110.412109 L 118.729980 110.412109 L 118.729980 111.335938 Z " fill="rgb(0, 0, 0)" fill-opacity="1.000000" />
<path d="M 118.892578 111.335938 L 118.892578 110.412109 L 125.729980 110.412109 L 125.729980 111.335938 Z " fill="rgb(0, 0, 0)" fill-opacity="1.000000" />
<path d="M 125.892578 111.335938 L 125.892578 110.412109 L 132.729980 110.412109 L 132.729980 111.335938 Z " fill="rgb(0, 0, 0)" fill-opacity="1.000000" />
<path d="M 132.892578 111.335938 L 132.892578 110.412109 L 139.729980 110.412109 L 139.729980 111.335938 Z " fill="rgb(0, 0, 0)" fill-opacity="1.000000" />
<path d="M 139.892578 111.335938 L 139.892578 110.412109 L 146.729980 110.412109 L 146.729980 111.335938 Z " fill="rgb(0, 0, 0)" fill-opacity="1.000000" />
<path d="M 146.892578 111.335938 L 146.892578 110.412109 L 153.729980 110.412109 L 153.729980 111.335938 Z " fill="rgb(0, 0, 0)" fill-opacity="1.000000" />
<path d="M 153.892578 111.335938 L 153.892578 110.412109 L 160.729980 110.412109 L 160.729980 111.335938 Z " fill="rgb(0, 0, 0)" fill-opacity="1.000000" />
<path d="M 160.892578 111.335938 L 160.892578 110.412109 L 167.729980 110.412109 L 167.729980 111.335938 Z " fill="rgb(0, 0, 0)" fill-opacity="1.000000" />
<path d="M 167.892578 111.335938 L 167.892578 110.412109 L 170.878906 110.412109 L 170.878906 103.300781 L 171.738281 103.300781 L 171.738281 111.335938 Z " fill="rgb(0, 0, 0)" fill-opacity="1.000000" />
<path d="M 198.878906 117.319336 L 198.878906 103.300781 L 199.738281 103.300781 L 199.738281 117.319336 Z " fill="rgb(0, 0, 0)" fill-opacity="1.000000" />
<path d="M 275.878906 111.335938 L 275.878906 103.300781 L 276.738281 103.300781 L 276.738281 110.412109 L 279.729980 110.412109 L 279.729980 111.335938 Z " fill="rgb(0, 0, 0)" fill-opacity="1.000000" />
<path d="M 279.892578 111.335938 L 279.892578 110.412109 L 286.729980 110.412109 L 286.729980 111.335938 Z " fill="rgb(0, 0, 0)" fill-opacity="1.000000" />
<path d="M 286.892578 111.335938 L 286.892578 110.412109 L 293.729980 110.412109 L 293.729980 111.335938 Z " fill="rgb(0, 0, 0)" fill-opacity="1.000000" />
<path d="M 293.892578 111.335938 L 293.892578 110.412109 L 300.729980 110.412109 L 300.729980 111.335938 Z " fill="rgb(0, 0, 0)" fill-opacity="1.000000" />
<path d="M 300.892578 111.335938 L 300.892578 110.412109 L 307.729980 110.412109 L 307.729980 111.335938 Z " fill="rgb(0, 0, 0)" fill-opacity="1.000000" />
<path d="M 307.892578 111.335938 L 307.892578 110.412109 L 314.729980 110.412109 L 314.729980 111.335938 Z " fill="rgb(0, 0, 0)" fill-opacity="1.000000" />
<path d="M 314.892578 111.335938 L 314.892578 110.412109 L 321.729980 110.412109 L 321.729980 111.335938 Z " fill="rgb(0, 0, 0)" fill-opacity="1.000000" />
<path d="M 321.892578 111.335938 L 321.892578 110.412109 L 328.729980 110.412109 L 328.729980 111.335938 Z " fill="rgb(0, 0, 0)" fill-opacity="1.000000" />
<path d="M 328.892578 111.335938 L 328.892578 110.412109 L 335.729980 110.412109 L 335.729980 111.335938 Z " fill="rgb(0, 0, 0)" fill-opacity="1.000000" />
<path d="M 335.892578 111.335938 L 335.892578 110.412109 L 342.729980 110.412109 L 342.729980 111.335938 Z " fill="rgb(0, 0, 0)" fill-opacity="1.000000" />
<path d="M 342.892578 111.335938 L 342.892578 110.412109 L 349.729980 110.412109 L 349.729980 111.335938 Z " fill="rgb(0, 0, 0)" fill-opacity="1.000000" />
<path d="M 349.892578 111.335938 L 349.892578 110.412109 L 356.729980 110.412109 L 356.729980 111.335938 Z " fill="rgb(0, 0, 0)" fill-opacity="1.000000" />
<path d="M 356.892578 111.335938 L 356.892578 110.412109 L 363.729980 110.412109 L 363.729980 111.335938 Z " fill="rgb(0, 0, 0)" fill-opacity="1.000000" />
<path d="M 363.892578 111.335938 L 363.892578 110.412109 L 370.729980 110.412109 L 370.729980 111.335938 Z " fill="rgb(0, 0, 0)" fill-opacity="1.000000" />
<path d="M 370.892578 111.335938 L 370.892578 110.412109 L 377.729980 110.412109 L 377.729980 111.335938 Z " fill="rgb(0, 0, 0)" fill-opacity="1.000000" />
<path d="M 377.892578 111.335938 L 377.892578 110.412109 L 384.729980 110.412109 L 384.729980 111.335938 Z " fill="rgb(0, 0, 0)" fill-opacity="1.000000" />
<path d="M 384.892578 111.335938 L 384.892578 110.412109 L 391.729980 110.412109 L 391.729980 111.335938 Z " fill="rgb(0, 0, 0)" fill-opacity="1.000000" />
<path d="M 391.892578 111.335938 L 391.892578 110.412109 L 394.878906 110.412109 L 394.878906 103.300781 L 395.738281 103.300781 L 395.738281 111.335938 Z " fill="rgb(0, 0, 0)" fill-opacity="1.000000" />
<path d="M 41.892578 98.335938 L 41.892578 97.412109 L 48.729980 97.412109 L 48.729980 98.335938 Z " fill="rgb(0, 0, 0)" fill-opacity="1.000000" />
<path d="M 48.892578 98.335938 L 48.892578 97.412109 L 55.729980 97.412109 L 55.729980 98.335938 Z " fill="rgb(0, 0, 0)" fill-opacity="1.000000" />
<path d="M 55.892578 98.335938 L 55.892578 97.412109 L 62.729980 97.412109 L 62.729980 98.335938 Z " fill="rgb(0, 0, 0)" fill-opacity="1.000000" />
<path d="M 65.878906 104.319336 L 65.878906 90.300781 L 66.738281 90.300781 L 66.738281 104.319336 Z " fill="rgb(0, 0, 0)" fill-opacity="1.000000" />
<path d="M 85.251465 92.980957 L 89.972656 92.980957 L 89.972656 93.894043 L 86.341797 93.894043 L 86.341797 96.042480 L 89.634277 96.042480 L 89.634277 96.955566 L 86.341797 96.955566 L 86.341797 101.000000 L 85.251465 101.000000 Z " fill="rgb(0, 0, 0)" fill-opacity="1.000000" />
<path d="M 94.861816 98.824707 Q 94.861816 99.490723 95.106201 99.829102 Q 95.350586 100.167480 95.828613 100.167480 L 96.983398 100.167480 L 96.983398 101.000000 L 95.731934 101.000000 Q 94.845703 101.000000 94.359619 100.433350 Q 93.873535 99.866699 93.873535 98.824707 L 93.873535 93.383789 L 92.289062 93.383789 L 92.289062 92.610352 L 94.861816 92.610352 Z " fill="rgb(0, 0, 0)" fill-opacity="1.000000" />
<path d="M 101.308594 95.677246 Q 100.556641 95.677246 100.169922 96.262695 Q 99.783203 96.848145 99.783203 97.997559 Q 99.783203 99.141602 100.169922 99.729736 Q 100.556641 100.317871 101.308594 100.317871 Q 102.065918 100.317871 102.452637 99.729736 Q 102.839355 99.141602 102.839355 97.997559 Q 102.839355 96.848145 102.452637 96.262695 Q 102.065918 95.677246 101.308594 95.677246 Z M 101.308594 94.839355 Q 102.560059 94.839355 103.223389 95.650391 Q 103.886719 96.461426 103.886719 97.997559 Q 103.886719 99.539062 103.226074 100.347412 Q 102.565430 101.155762 101.308594 101.155762 Q 100.057129 101.155762 99.396484 100.347412 Q 98.735840 99.539062 98.735840 97.997559 Q 98.735840 96.461426 99.396484 95.650391 Q 100.057129 94.839355 101.308594 94.839355 Z " fill="rgb(0, 0, 0)" fill-opacity="1.000000" />
<path d="M 105.000000 94.984375 L 105.977539 94.984375 L 107.024902 99.845215 L 107.884277 96.740723 L 108.727539 96.740723 L 109.597656 99.845215 L 110.645020 94.984375 L 111.622559 94.984375 L 110.215332 101.000000 L 109.270020 101.000000 L 108.308594 97.702148 L 107.352539 101.000000 L 106.407227 101.000000 Z " fill="rgb(0, 0, 0)" fill-opacity="1.000000" />
<path d="M 113.251465 92.980957 L 117.972656 92.980957 L 117.972656 93.894043 L 114.341797 93.894043 L 114.341797 96.042480 L 117.634277 96.042480 L 117.634277 96.955566 L 114.341797 96.955566 L 114.341797 101.000000 L 113.251465 101.000000 Z " fill="rgb(0, 0, 0)" fill-opacity="1.000000" />
<path d="M 122.770508 97.976074 L 122.442871 97.976074 Q 121.578125 97.976074 121.140381 98.279541 Q 120.702637 98.583008 120.702637 99.184570 Q 120.702637 99.727051 121.030273 100.027832 Q 121.357910 100.328613 121.937988 100.328613 Q 122.754395 100.328613 123.221680 99.761963 Q 123.688965 99.195312 123.694336 98.196289 L 123.694336 97.976074 Z M 124.687988 97.567871 L 124.687988 101.000000 L 123.694336 101.000000 L 123.694336 100.108398 Q 123.377441 100.645508 122.896729 100.900635 Q 122.416016 101.155762 121.728516 101.155762 Q 120.810059 101.155762 120.262207 100.637451 Q 119.714355 100.119141 119.714355 99.249023 Q 119.714355 98.244629 120.388428 97.723633 Q 121.062500 97.202637 122.367676 97.202637 L 123.694336 97.202637 L 123.694336 97.046875 Q 123.688965 96.327148 123.329102 96.002197 Q 122.969238 95.677246 122.179688 95.677246 Q 121.674805 95.677246 121.159180 95.822266 Q 120.643555 95.967285 120.154785 96.246582 L 120.154785 95.258301 Q 120.702637 95.048828 121.204834 94.944092 Q 121.707031 94.839355 122.179688 94.839355 Q 122.926270 94.839355 123.455322 95.059570 Q 123.984375 95.279785 124.312012 95.720215 Q 124.516113 95.988770 124.602051 96.383545 Q 124.687988 96.778320 124.687988 97.567871 Z " fill="rgb(0, 0, 0)" fill-opacity="1.000000" />
<path d="M 131.698730 100.693848 Q 131.301270 100.924805 130.879639 101.040283 Q 130.458008 101.155762 130.017578 101.155762 Q 128.621094 101.155762 127.834229 100.317871 Q 127.047363 99.479980 127.047363 97.997559 Q 127.047363 96.515137 127.834229 95.677246 Q 128.621094 94.839355 130.017578 94.839355 Q 130.452637 94.839355 130.866211 94.952148 Q 131.279785 95.064941 131.698730 95.301270 L 131.698730 96.337891 Q 131.306641 95.988770 130.911865 95.833008 Q 130.517090 95.677246 130.017578 95.677246 Q 129.088379 95.677246 128.588867 96.278809 Q 128.089355 96.880371 128.089355 97.997559 Q 128.089355 99.109375 128.591553 99.713623 Q 129.093750 100.317871 130.017578 100.317871 Q 130.533203 100.317871 130.941406 100.159424 Q 131.349609 100.000977 131.698730 99.667969 Z " fill="rgb(0, 0, 0)" fill-opacity="1.000000" />
<path d="M 136.770508 97.976074 L 136.442871 97.976074 Q 135.578125 97.976074 135.140381 98.279541 Q 134.702637 98.583008 134.702637 99.184570 Q 134.702637 99.727051 135.030273 100.027832 Q 135.357910 100.328613 135.937988 100.328613 Q 136.754395 100.328613 137.221680 99.761963 Q 137.688965 99.195312 137.694336 98.196289 L 137.694336 97.976074 Z M 138.687988 97.567871 L 138.687988 101.000000 L 137.694336 101.000000 L 137.694336 100.108398 Q 137.377441 100.645508 136.896729 100.900635 Q 136.416016 101.155762 135.728516 101.155762 Q 134.810059 101.155762 134.262207 100.637451 Q 133.714355 100.119141 133.714355 99.249023 Q 133.714355 98.244629 134.388428 97.723633 Q 135.062500 97.202637 136.367676 97.202637 L 137.694336 97.202637 L 137.694336 97.046875 Q 137.688965 96.327148 137.329102 96.002197 Q 136.969238 95.677246 136.179688 95.677246 Q 135.674805 95.677246 135.159180 95.822266 Q 134.643555 95.967285 134.154785 96.246582 L 134.154785 95.258301 Q 134.702637 95.048828 135.204834 94.944092 Q 135.707031 94.839355 136.179688 94.839355 Q 136.926270 94.839355 137.455322 95.059570 Q 137.984375 95.279785 138.312012 95.720215 Q 138.516113 95.988770 138.602051 96.383545 Q 138.687988 96.778320 138.687988 97.567871 Z " fill="rgb(0, 0, 0)" fill-opacity="1.000000" />
<path d="M 144.608398 95.752441 L 144.608398 92.642578 L 145.596680 92.642578 L 145.596680 101.000000 L 144.608398 101.000000 L 144.608398 100.242676 Q 144.361328 100.688477 143.950439 100.922119 Q 143.539551 101.155762 143.002441 101.155762 Q 141.912109 101.155762 141.286377 100.309814 Q 140.660645 99.463867 140.660645 97.976074 Q 140.660645 96.509766 141.289062 95.674561 Q 141.917480 94.839355 143.002441 94.839355 Q 143.544922 94.839355 143.958496 95.072998 Q 144.372070 95.306641 144.608398 95.752441 Z M 141.702637 97.997559 Q 141.702637 99.146973 142.067871 99.732422 Q 142.433105 100.317871 143.147461 100.317871 Q 143.861816 100.317871 144.235107 99.727051 Q 144.608398 99.136230 144.608398 97.997559 Q 144.608398 96.853516 144.235107 96.265381 Q 143.861816 95.677246 143.147461 95.677246 Q 142.433105 95.677246 142.067871 96.262695 Q 141.702637 96.848145 141.702637 97.997559 Z " fill="rgb(0, 0, 0)" fill-opacity="1.000000" />
<path d="M 153.015625 97.498047 L 153.015625 97.981445 L 148.734863 97.981445 L 148.734863 98.013672 Q 148.691895 99.243652 149.204834 99.780762 Q 149.717773 100.317871 150.652344 100.317871 Q 151.125000 100.317871 151.640625 100.167480 Q 152.156250 100.017090 152.741699 99.710938 L 152.741699 100.693848 Q 152.177734 100.924805 151.654053 101.040283 Q 151.130371 101.155762 150.641602 101.155762 Q 149.239746 101.155762 148.450195 100.315186 Q 147.660645 99.474609 147.660645 97.997559 Q 147.660645 96.558105 148.434082 95.698730 Q 149.207520 94.839355 150.496582 94.839355 Q 151.645996 94.839355 152.309326 95.618164 Q 152.972656 96.396973 153.015625 97.498047 Z M 152.027344 97.208008 Q 151.962891 96.584961 151.573486 96.131104 Q 151.184082 95.677246 150.453613 95.677246 Q 149.739258 95.677246 149.277344 96.149902 Q 148.815430 96.622559 148.772461 97.213379 Z " fill="rgb(0, 0, 0)" fill-opacity="1.000000" />
<path d="M 170.878906 104.319336 L 170.878906 90.300781 L 171.738281 90.300781 L 171.738281 104.319336 Z " fill="rgb(0, 0, 0)" fill-opacity="1.000000" />
<path d="M 174.892578 98.335938 L 174.892578 97.412109 L 181.729980 97.412109 L 181.729980 98.335938 Z " fill="rgb(0, 0, 0)" fill-opacity="1.000000" />
<path d="M 181.892578 98.335938 L 181.892578 97.412109 L 188.729980 97.412109 L 188.729980 98.335938 Z " fill="rgb(0, 0, 0)" fill-opacity="1.000000" />
<path d="M 188.892578 98.335938 L 188.892578 97.412109 L 195.729980 97.412109 L 195.729980 98.335938 Z " fill="rgb(0, 0, 0)" fill-opacity="1.000000" />
<path d="M 198.878906 104.319336 L 198.878906 98.335938 L 195.892578 98.335938 L 195.892578 97.412109 L 199.738281 97.412109 L 199.738281 104.319336 Z " fill="rgb(0, 0, 0)" fill-opacity="1.000000" />
<path d="M 275.878906 104.319336 L 275.878906 90.300781 L 276.738281 90.300781 L 276.738281 104.319336 Z " fill="rgb(0, 0, 0)" fill-opacity="1.000000" />
<path d="M 289.143066 93.872559 L 289.143066 96.885742 L 290.399902 96.885742 Q 291.151855 96.885742 291.573486 96.488281 Q 291.995117 96.090820 291.995117 95.376465 Q 291.995117 94.662109 291.576172 94.267334 Q 291.157227 93.872559 290.399902 93.872559 Z M 288.058105 92.980957 L 290.399902 92.980957 Q 291.742676 92.980957 292.435547 93.590576 Q 293.128418 94.200195 293.128418 95.376465 Q 293.128418 96.563477 292.438232 97.170410 Q 291.748047 97.777344 290.399902 97.777344 L 289.143066 97.777344 L 289.143066 101.000000 L 288.058105 101.000000 Z " fill="rgb(0, 0, 0)" fill-opacity="1.000000" />
<path d="M 295.047363 98.722656 L 295.047363 94.995117 L 296.035645 94.995117 L 296.035645 98.722656 Q 296.035645 99.533691 296.322998 99.915039 Q 296.610352 100.296387 297.211914 100.296387 Q 297.910156 100.296387 298.280762 99.804932 Q 298.651367 99.313477 298.651367 98.395020 L 298.651367 94.995117 L 299.645020 94.995117 L 299.645020 101.000000 L 298.651367 101.000000 L 298.651367 100.097656 Q 298.388184 100.618652 297.934326 100.887207 Q 297.480469 101.155762 296.873535 101.155762 Q 295.949707 101.155762 295.498535 100.551514 Q 295.047363 99.947266 295.047363 98.722656 Z " fill="rgb(0, 0, 0)" fill-opacity="1.000000" />
<path d="M 305.930664 97.997559 Q 305.930664 96.848145 305.565430 96.262695 Q 305.200195 95.677246 304.485840 95.677246 Q 303.766113 95.677246 303.395508 96.265381 Q 303.024902 96.853516 303.024902 97.997559 Q 303.024902 99.136230 303.395508 99.727051 Q 303.766113 100.317871 304.485840 100.317871 Q 305.200195 100.317871 305.565430 99.732422 Q 305.930664 99.146973 305.930664 97.997559 Z M 303.024902 95.752441 Q 303.261230 95.312012 303.677490 95.075684 Q 304.093750 94.839355 304.641602 94.839355 Q 305.726562 94.839355 306.349609 95.674561 Q 306.972656 96.509766 306.972656 97.976074 Q 306.972656 99.463867 306.346924 100.309814 Q 305.721191 101.155762 304.630859 101.155762 Q 304.093750 101.155762 303.682861 100.922119 Q 303.271973 100.688477 303.024902 100.242676 L 303.024902 101.000000 L 302.036621 101.000000 L 302.036621 92.642578 L 303.024902 92.642578 Z " fill="rgb(0, 0, 0)" fill-opacity="1.000000" />
<path d="M 313.435547 93.254883 L 313.435547 94.355957 Q 312.941406 94.039062 312.444580 93.877930 Q 311.947754 93.716797 311.442871 93.716797 Q 310.674805 93.716797 310.229004 94.073975 Q 309.783203 94.431152 309.783203 95.038086 Q 309.783203 95.569824 310.075928 95.849121 Q 310.368652 96.128418 311.168945 96.316406 L 311.738281 96.445312 Q 312.866211 96.708496 313.381836 97.272461 Q 313.897461 97.836426 313.897461 98.808594 Q 313.897461 99.952637 313.188477 100.554199 Q 312.479492 101.155762 311.125977 101.155762 Q 310.562012 101.155762 309.992676 101.034912 Q 309.423340 100.914062 308.848633 100.672363 L 308.848633 99.517578 Q 309.466309 99.909668 310.016846 100.092285 Q 310.567383 100.274902 311.125977 100.274902 Q 311.947754 100.274902 312.404297 99.906982 Q 312.860840 99.539062 312.860840 98.878418 Q 312.860840 98.276855 312.546631 97.959961 Q 312.232422 97.643066 311.453613 97.471191 L 310.873535 97.336914 Q 309.756348 97.084473 309.251465 96.574219 Q 308.746582 96.063965 308.746582 95.204590 Q 308.746582 94.130371 309.468994 93.483154 Q 310.191406 92.835938 311.389160 92.835938 Q 311.851074 92.835938 312.361328 92.940674 Q 312.871582 93.045410 313.435547 93.254883 Z " fill="rgb(0, 0, 0)" fill-opacity="1.000000" />
<path d="M 316.047363 98.722656 L 316.047363 94.995117 L 317.035645 94.995117 L 317.035645 98.722656 Q 317.035645 99.533691 317.322998 99.915039 Q 317.610352 100.296387 318.211914 100.296387 Q 318.910156 100.296387 319.280762 99.804932 Q 319.651367 99.313477 319.651367 98.395020 L 319.651367 94.995117 L 320.645020 94.995117 L 320.645020 101.000000 L 319.651367 101.000000 L 319.651367 100.097656 Q 319.388184 100.618652 318.934326 100.887207 Q 318.480469 101.155762 317.873535 101.155762 Q 316.949707 101.155762 316.498535 100.551514 Q 316.047363 99.947266 316.047363 98.722656 Z " fill="rgb(0, 0, 0)" fill-opacity="1.000000" />
<path d="M 326.930664 97.997559 Q 326.930664 96.848145 326.565430 96.262695 Q 326.200195 95.677246 325.485840 95.677246 Q 324.766113 95.677246 324.395508 96.265381 Q 324.024902 96.853516 324.024902 97.997559 Q 324.024902 99.136230 324.395508 99.727051 Q 324.766113 100.317871 325.485840 100.317871 Q 326.200195 100.317871 326.565430 99.732422 Q 326.930664 99.146973 326.930664 97.997559 Z M 324.024902 95.752441 Q 324.261230 95.312012 324.677490 95.075684 Q 325.093750 94.839355 325.641602 94.839355 Q 326.726562 94.839355 327.349609 95.674561 Q 327.972656 96.509766 327.972656 97.976074 Q 327.972656 99.463867 327.346924 100.309814 Q 326.721191 101.155762 325.630859 101.155762 Q 325.093750 101.155762 324.682861 100.922119 Q 324.271973 100.688477 324.024902 100.242676 L 324.024902 101.000000 L 323.036621 101.000000 L 323.036621 92.642578 L 324.024902 92.642578 Z " fill="rgb(0, 0, 0)" fill-opacity="1.000000" />
<path d="M 329.193359 93.007812 L 330.643555 93.007812 L 332.029297 97.079102 L 333.425781 93.007812 L 334.881348 93.007812 L 334.881348 101.000000 L 333.876953 101.000000 L 333.876953 93.937012 L 332.448242 98.147949 L 331.626465 98.147949 L 330.192383 93.937012 L 330.192383 101.000000 L 329.193359 101.000000 Z " fill="rgb(0, 0, 0)" fill-opacity="1.000000" />
<path d="M 342.015625 97.498047 L 342.015625 97.981445 L 337.734863 97.981445 L 337.734863 98.013672 Q 337.691895 99.243652 338.204834 99.780762 Q 338.717773 100.317871 339.652344 100.317871 Q 340.125000 100.317871 340.640625 100.167480 Q 341.156250 100.017090 341.741699 99.710938 L 341.741699 100.693848 Q 341.177734 100.924805 340.654053 101.040283 Q 340.130371 101.155762 339.641602 101.155762 Q 338.239746 101.155762 337.450195 100.315186 Q 336.660645 99.474609 336.660645 97.997559 Q 336.660645 96.558105 337.434082 95.698730 Q 338.207520 94.839355 339.496582 94.839355 Q 340.645996 94.839355 341.309326 95.618164 Q 341.972656 96.396973 342.015625 97.498047 Z M 341.027344 97.208008 Q 340.962891 96.584961 340.573486 96.131104 Q 340.184082 95.677246 339.453613 95.677246 Q 338.739258 95.677246 338.277344 96.149902 Q 337.815430 96.622559 337.772461 97.213379 Z " fill="rgb(0, 0, 0)" fill-opacity="1.000000" />
<path d="M 347.608398 95.752441 L 347.608398 92.642578 L 348.596680 92.642578 L 348.596680 101.000000 L 347.608398 101.000000 L 347.608398 100.242676 Q 347.361328 100.688477 346.950439 100.922119 Q 346.539551 101.155762 346.002441 101.155762 Q 344.912109 101.155762 344.286377 100.309814 Q 343.660645 99.463867 343.660645 97.976074 Q 343.660645 96.509766 344.289062 95.674561 Q 344.917480 94.839355 346.002441 94.839355 Q 346.544922 94.839355 346.958496 95.072998 Q 347.372070 95.306641 347.608398 95.752441 Z M 344.702637 97.997559 Q 344.702637 99.146973 345.067871 99.732422 Q 345.433105 100.317871 346.147461 100.317871 Q 346.861816 100.317871 347.235107 99.727051 Q 347.608398 99.136230 347.608398 97.997559 Q 347.608398 96.853516 347.235107 96.265381 Q 346.861816 95.677246 346.147461 95.677246 Q 345.433105 95.677246 345.067871 96.262695 Q 344.702637 96.848145 344.702637 97.997559 Z " fill="rgb(0, 0, 0)" fill-opacity="1.000000" />
<path d="M 351.697266 95.005859 L 354.227051 95.005859 L 354.227051 100.231934 L 356.187500 100.231934 L 356.187500 101.000000 L 351.278320 101.000000 L 351.278320 100.231934 L 353.238770 100.231934 L 353.238770 95.773926 L 351.697266 95.773926 Z M 353.238770 92.669434 L 354.227051 92.669434 L 354.227051 93.915527 L 353.238770 93.915527 Z " fill="rgb(0, 0, 0)" fill-opacity="1.000000" />
<path d="M 360.770508 97.976074 L 360.442871 97.976074 Q 359.578125 97.976074 359.140381 98.279541 Q 358.702637 98.583008 358.702637 99.184570 Q 358.702637 99.727051 359.030273 100.027832 Q 359.357910 100.328613 359.937988 100.328613 Q 360.754395 100.328613 361.221680 99.761963 Q 361.688965 99.195312 361.694336 98.196289 L 361.694336 97.976074 Z M 362.687988 97.567871 L 362.687988 101.000000 L 361.694336 101.000000 L 361.694336 100.108398 Q 361.377441 100.645508 360.896729 100.900635 Q 360.416016 101.155762 359.728516 101.155762 Q 358.810059 101.155762 358.262207 100.637451 Q 357.714355 100.119141 357.714355 99.249023 Q 357.714355 98.244629 358.388428 97.723633 Q 359.062500 97.202637 360.367676 97.202637 L 361.694336 97.202637 L 361.694336 97.046875 Q 361.688965 96.327148 361.329102 96.002197 Q 360.969238 95.677246 360.179688 95.677246 Q 359.674805 95.677246 359.159180 95.822266 Q 358.643555 95.967285 358.154785 96.246582 L 358.154785 95.258301 Q 358.702637 95.048828 359.204834 94.944092 Q 359.707031 94.839355 360.179688 94.839355 Q 360.926270 94.839355 361.455322 95.059570 Q 361.984375 95.279785 362.312012 95.720215 Q 362.516113 95.988770 362.602051 96.383545 Q 362.687988 96.778320 362.687988 97.567871 Z " fill="rgb(0, 0, 0)" fill-opacity="1.000000" />
<path d="M 367.297852 93.276367 L 367.297852 94.984375 L 369.542969 94.984375 L 369.542969 95.752441 L 367.297852 95.752441 L 367.297852 99.018066 Q 367.297852 99.684082 367.550293 99.947266 Q 367.802734 100.210449 368.431152 100.210449 L 369.542969 100.210449 L 369.542969 101.000000 L 368.334473 101.000000 Q 367.222656 101.000000 366.766113 100.554199 Q 366.309570 100.108398 366.309570 99.018066 L 366.309570 95.752441 L 364.703613 95.752441 L 364.703613 94.984375 L 366.309570 94.984375 L 366.309570 93.276367 Z " fill="rgb(0, 0, 0)" fill-opacity="1.000000" />
<path d="M 374.308594 95.677246 Q 373.556641 95.677246 373.169922 96.262695 Q 372.783203 96.848145 372.783203 97.997559 Q 372.783203 99.141602 373.169922 99.729736 Q 373.556641 100.317871 374.308594 100.317871 Q 375.065918 100.317871 375.452637 99.729736 Q 375.839355 99.141602 375.839355 97.997559 Q 375.839355 96.848145 375.452637 96.262695 Q 375.065918 95.677246 374.308594 95.677246 Z M 374.308594 94.839355 Q 375.560059 94.839355 376.223389 95.650391 Q 376.886719 96.461426 376.886719 97.997559 Q 376.886719 99.539062 376.226074 100.347412 Q 375.565430 101.155762 374.308594 101.155762 Q 373.057129 101.155762 372.396484 100.347412 Q 371.735840 99.539062 371.735840 97.997559 Q 371.735840 96.461426 372.396484 95.650391 Q 373.057129 94.839355 374.308594 94.839355 Z " fill="rgb(0, 0, 0)" fill-opacity="1.000000" />
<path d="M 384.203613 96.225098 Q 383.886719 95.978027 383.559082 95.865234 Q 383.231445 95.752441 382.839355 95.752441 Q 381.915527 95.752441 381.426758 96.332520 Q 380.937988 96.912598 380.937988 98.008301 L 380.937988 101.000000 L 379.944336 101.000000 L 379.944336 94.984375 L 380.937988 94.984375 L 380.937988 96.160645 Q 381.185059 95.521484 381.697998 95.180420 Q 382.210938 94.839355 382.914551 94.839355 Q 383.279785 94.839355 383.596680 94.930664 Q 383.913574 95.021973 384.203613 95.215332 Z " fill="rgb(0, 0, 0)" fill-opacity="1.000000" />
<path d="M 394.878906 104.319336 L 394.878906 90.300781 L 395.738281 90.300781 L 395.738281 104.319336 Z " fill="rgb(0, 0, 0)" fill-opacity="1.000000" />
<path d="M 65.878906 91.319336 L 65.878906 84.412109 L 69.729980 84.412109 L 69.729980 85.335938 L 66.738281 85.335938 L 66.738281 91.319336 Z " fill="rgb(0, 0, 0)" fill-opacity="1.000000" />
<path d="M 69.892578 85.335938 L 69.892578 84.412109 L 76.729980 84.412109 L 76.729980 85.335938 Z " fill="rgb(0, 0, 0)" fill-opacity="1.000000" />
<path d="M 76.892578 85.335938 L 76.892578 84.412109 L 83.729980 84.412109 L 83.729980 85.335938 Z " fill="rgb(0, 0, 0)" fill-opacity="1.000000" />
<path d="M 83.892578 85.335938 L 83.892578 84.412109 L 90.729980 84.412109 L 90.729980 85.335938 Z " fill="rgb(0, 0, 0)" fill-opacity="1.000000" />
<path d="M 90.892578 85.335938 L 90.892578 84.412109 L 97.729980 84.412109 L 97.729980 85.335938 Z " fill="rgb(0, 0, 0)" fill-opacity="1.000000" />
<path d="M 97.892578 85.335938 L 97.892578 84.412109 L 104.729980 84.412109 L 104.729980 85.335938 Z " fill="rgb(0, 0, 0)" fill-opacity="1.000000" />
<path d="M 104.892578 85.335938 L 104.892578 84.412109 L 111.729980 84.412109 L 111.729980 85.335938 Z " fill="rgb(0, 0, 0)" fill-opacity="1.000000" />
<path d="M 111.892578 85.335938 L 111.892578 84.412109 L 118.729980 84.412109 L 118.729980 85.335938 Z " fill="rgb(0, 0, 0)" fill-opacity="1.000000" />
<path d="M 118.892578 85.335938 L 118.892578 84.412109 L 125.729980 84.412109 L 125.729980 85.335938 Z " fill="rgb(0, 0, 0)" fill-opacity="1.000000" />
<path d="M 125.892578 85.335938 L 125.892578 84.412109 L 132.729980 84.412109 L 132.729980 85.335938 Z " fill="rgb(0, 0, 0)" fill-opacity="1.000000" />
<path d="M 132.892578 85.335938 L 132.892578 84.412109 L 139.729980 84.412109 L 139.729980 85.335938 Z " fill="rgb(0, 0, 0)" fill-opacity="1.000000" />
<path d="M 139.892578 85.335938 L 139.892578 84.412109 L 146.729980 84.412109 L 146.729980 85.335938 Z " fill="rgb(0, 0, 0)" fill-opacity="1.000000" />
<path d="M 146.892578 85.335938 L 146.892578 84.412109 L 153.729980 84.412109 L 153.729980 85.335938 Z " fill="rgb(0, 0, 0)" fill-opacity="1.000000" />
<path d="M 153.892578 85.335938 L 153.892578 84.412109 L 160.729980 84.412109 L 160.729980 85.335938 Z " fill="rgb(0, 0, 0)" fill-opacity="1.000000" />
<path d="M 160.892578 85.335938 L 160.892578 84.412109 L 167.729980 84.412109 L 167.729980 85.335938 Z " fill="rgb(0, 0, 0)" fill-opacity="1.000000" />
<path d="M 170.878906 91.319336 L 170.878906 85.335938 L 167.892578 85.335938 L 167.892578 84.412109 L 171.738281 84.412109 L 171.738281 91.319336 Z " fill="rgb(0, 0, 0)" fill-opacity="1.000000" />
<path d="M 275.878906 91.319336 L 275.878906 84.412109 L 279.729980 84.412109 L 279.729980 85.335938 L 276.738281 85.335938 L 276.738281 91.319336 Z " fill="rgb(0, 0, 0)" fill-opacity="1.000000" />
<path d="M 279.892578 85.335938 L 279.892578 84.412109 L 286.729980 84.412109 L 286.729980 85.335938 Z " fill="rgb(0, 0, 0)" fill-opacity="1.000000" />
<path d="M 286.892578 85.335938 L 286.892578 84.412109 L 293.729980 84.412109 L 293.729980 85.335938 Z " fill="rgb(0, 0, 0)" fill-opacity="1.000000" />
<path d="M 293.892578 85.335938 L 293.892578 84.412109 L 300.729980 84.412109 L 300.729980 85.335938 Z " fill="rgb(0, 0, 0)" fill-opacity="1.000000" />
<path d="M 300.892578 85.335938 L 300.892578 84.412109 L 307.729980 84.412109 L 307.729980 85.335938 Z " fill="rgb(0, 0, 0)" fill-opacity="1.000000" />
<path d="M 307.892578 85.335938 L 307.892578 84.412109 L 314.729980 84.412109 L 314.729980 85.335938 Z " fill="rgb(0, 0, 0)" fill-opacity="1.000000" />
<path d="M 314.892578 85.335938 L 314.892578 84.412109 L 321.729980 84.412109 L 321.729980 85.335938 Z " fill="rgb(0, 0, 0)" fill-opacity="1.000000" />
<path d="M 321.892578 85.335938 L 321.892578 84.412109 L 328.729980 84.412109 L 328.729980 85.335938 Z " fill="rgb(0, 0, 0)" fill-opacity="1.000000" />
<path d="M 328.892578 85.335938 L 328.892578 84.412109 L 335.729980 84.412109 L 335.729980 85.335938 Z " fill="rgb(0, 0, 0)" fill-opacity="1.000000" />
<path d="M 335.892578 85.335938 L 335.892578 84.412109 L 342.729980 84.412109 L 342.729980 85.335938 Z " fill="rgb(0, 0, 0)" fill-opacity="1.000000" />
<path d="M 342.892578 85.335938 L 342.892578 84.412109 L 349.729980 84.412109 L 349.729980 85.335938 Z " fill="rgb(0, 0, 0)" fill-opacity="1.000000" />
<path d="M 349.892578 85.335938 L 349.892578 84.412109 L 356.729980 84.412109 L 356.729980 85.335938 Z " fill="rgb(0, 0, 0)" fill-opacity="1.000000" />
<path d="M 356.892578 85.335938 L 356.892578 84.412109 L 363.729980 84.412109 L 363.729980 85.335938 Z " fill="rgb(0, 0, 0)" fill-opacity="1.000000" />
<path d="M 363.892578 85.335938 L 363.892578 84.412109 L 370.729980 84.412109 L 370.729980 85.335938 Z " fill="rgb(0, 0, 0)" fill-opacity="1.000000" />
<path d="M 370.892578 85.335938 L 370.892578 84.412109 L 377.729980 84.412109 L 377.729980 85.335938 Z " fill="rgb(0, 0, 0)" fill-opacity="1.000000" />
<path d="M 377.892578 85.335938 L 377.892578 84.412109 L 384.729980 84.412109 L 384.729980 85.335938 Z " fill="rgb(0, 0, 0)" fill-opacity="1.000000" />
<path d="M 384.892578 85.335938 L 384.892578 84.412109 L 391.729980 84.412109 L 391.729980 85.335938 Z " fill="rgb(0, 0, 0)" fill-opacity="1.000000" />
<path d="M 394.878906 91.319336 L 394.878906 85.335938 L 391.892578 85.335938 L 391.892578 84.412109 L 395.738281 84.412109 L 395.738281 91.319336 Z " fill="rgb(0, 0, 0)" fill-opacity="1.000000" />
<path d="M 121.878906 26.319336 L 121.878906 19.412109 L 125.729980 19.412109 L 125.729980 20.335938 L 122.738281 20.335938 L 122.738281 26.319336 Z " fill="rgb(0, 0, 0)" fill-opacity="1.000000" />
<path d="M 121.878906 39.319336 L 121.878906 25.300781 L 122.738281 25.300781 L 122.738281 39.319336 Z " fill="rgb(0, 0, 0)" fill-opacity="1.000000" />
<path d="M 121.878906 52.319336 L 121.878906 38.300781 L 122.738281 38.300781 L 122.738281 52.319336 Z " fill="rgb(0, 0, 0)" fill-opacity="1.000000" />
<path d="M 121.878906 65.319336 L 121.878906 51.300781 L 122.738281 51.300781 L 122.738281 65.319336 Z " fill="rgb(0, 0, 0)" fill-opacity="1.000000" />
<path d="M 122.308594 75.418945 L 119.032227 68.866211 L 125.590332 68.866211 Z " fill="rgb(0, 0, 0)" fill-opacity="1.000000" />
<path d="M 339.308594 75.418945 L 336.032227 68.866211 L 342.590332 68.866211 Z " fill="rgb(0, 0, 0)" fill-opacity="1.000000" />
<path d="M 170.878906 33.335938 L 170.878906 25.300781 L 171.738281 25.300781 L 171.738281 32.412109 L 174.729980 32.412109 L 174.729980 33.335938 Z " fill="rgb(0, 0, 0)" fill-opacity="1.000000" />
<path d="M 338.878906 52.319336 L 338.878906 38.300781 L 339.738281 38.300781 L 339.738281 52.319336 Z " fill="rgb(0, 0, 0)" fill-opacity="1.000000" />
<path d="M 338.878906 65.319336 L 338.878906 51.300781 L 339.738281 51.300781 L 339.738281 65.319336 Z " fill="rgb(0, 0, 0)" fill-opacity="1.000000" />
<path d="M 174.892578 33.335938 L 174.892578 32.412109 L 181.729980 32.412109 L 181.729980 33.335938 Z " fill="rgb(0, 0, 0)" fill-opacity="1.000000" />
<path d="M 181.892578 33.335938 L 181.892578 32.412109 L 188.729980 32.412109 L 188.729980 33.335938 Z " fill="rgb(0, 0, 0)" fill-opacity="1.000000" />
<path d="M 188.892578 33.335938 L 188.892578 32.412109 L 195.729980 32.412109 L 195.729980 33.335938 Z " fill="rgb(0, 0, 0)" fill-opacity="1.000000" />
<path d="M 195.892578 33.335938 L 195.892578 32.412109 L 202.729980 32.412109 L 202.729980 33.335938 Z " fill="rgb(0, 0, 0)" fill-opacity="1.000000" />
<path d="M 202.892578 33.335938 L 202.892578 32.412109 L 209.729980 32.412109 L 209.729980 33.335938 Z " fill="rgb(0, 0, 0)" fill-opacity="1.000000" />
<path d="M 209.892578 33.335938 L 209.892578 32.412109 L 216.729980 32.412109 L 216.729980 33.335938 Z " fill="rgb(0, 0, 0)" fill-opacity="1.000000" />
<path d="M 216.892578 33.335938 L 216.892578 32.412109 L 223.729980 32.412109 L 223.729980 33.335938 Z " fill="rgb(0, 0, 0)" fill-opacity="1.000000" />
<path d="M 223.892578 33.335938 L 223.892578 32.412109 L 230.729980 32.412109 L 230.729980 33.335938 Z " fill="rgb(0, 0, 0)" fill-opacity="1.000000" />
<path d="M 230.892578 33.335938 L 230.892578 32.412109 L 237.729980 32.412109 L 237.729980 33.335938 Z " fill="rgb(0, 0, 0)" fill-opacity="1.000000" />
<path d="M 237.892578 33.335938 L 237.892578 32.412109 L 244.729980 32.412109 L 244.729980 33.335938 Z " fill="rgb(0, 0, 0)" fill-opacity="1.000000" />
<path d="M 244.892578 33.335938 L 244.892578 32.412109 L 251.729980 32.412109 L 251.729980 33.335938 Z " fill="rgb(0, 0, 0)" fill-opacity="1.000000" />
<path d="M 251.892578 33.335938 L 251.892578 32.412109 L 258.729980 32.412109 L 258.729980 33.335938 Z " fill="rgb(0, 0, 0)" fill-opacity="1.000000" />
<path d="M 258.892578 33.335938 L 258.892578 32.412109 L 265.729980 32.412109 L 265.729980 33.335938 Z " fill="rgb(0, 0, 0)" fill-opacity="1.000000" />
<path d="M 265.892578 33.335938 L 265.892578 32.412109 L 272.729980 32.412109 L 272.729980 33.335938 Z " fill="rgb(0, 0, 0)" fill-opacity="1.000000" />
<path d="M 272.892578 33.335938 L 272.892578 32.412109 L 275.878906 32.412109 L 275.878906 25.300781 L 276.738281 25.300781 L 276.738281 33.335938 Z " fill="rgb(0, 0, 0)" fill-opacity="1.000000" />
<path d="M 338.878906 39.319336 L 338.878906 25.300781 L 339.738281 25.300781 L 339.738281 39.319336 Z " fill="rgb(0, 0, 0)" fill-opacity="1.000000" />
<path d="M 125.892578 20.335938 L 125.892578 19.412109 L 132.729980 19.412109 L 132.729980 20.335938 Z " fill="rgb(0, 0, 0)" fill-opacity="1.000000" />
<path d="M 132.892578 20.335938 L 132.892578 19.412109 L 139.729980 19.412109 L 139.729980 20.335938 Z " fill="rgb(0, 0, 0)" fill-opacity="1.000000" />
<path d="M 139.892578 20.335938 L 139.892578 19.412109 L 146.729980 19.412109 L 146.729980 20.335938 Z " fill="rgb(0, 0, 0)" fill-opacity="1.000000" />
<path d="M 146.892578 20.335938 L 146.892578 19.412109 L 153.729980 19.412109 L 153.729980 20.335938 Z " fill="rgb(0, 0, 0)" fill-opacity="1.000000" />
<path d="M 153.892578 20.335938 L 153.892578 19.412109 L 160.729980 19.412109 L 160.729980 20.335938 Z " fill="rgb(0, 0, 0)" fill-opacity="1.000000" />
<path d="M 160.892578 20.335938 L 160.892578 19.412109 L 167.729980 19.412109 L 167.729980 20.335938 Z " fill="rgb(0, 0, 0)" fill-opacity="1.000000" />
<path d="M 170.878906 26.319336 L 170.878906 12.300781 L 171.738281 12.300781 L 171.738281 26.319336 Z " fill="rgb(0, 0, 0)" fill-opacity="1.000000" />
<path d="M 186.082031 19.213379 Q 186.500977 19.320801 186.796387 19.618896 Q 187.091797 19.916992 187.532227 20.808594 L 188.622559 23.000000 L 187.457031 23.000000 L 186.500977 20.975098 Q 186.087402 20.110352 185.757080 19.860596 Q 185.426758 19.610840 184.895020 19.610840 L 183.858398 19.610840 L 183.858398 23.000000 L 182.768066 23.000000 L 182.768066 14.980957 L 185.002441 14.980957 Q 186.323730 14.980957 187.027344 15.577148 Q 187.730957 16.173340 187.730957 17.301270 Q 187.730957 18.096191 187.298584 18.598389 Q 186.866211 19.100586 186.082031 19.213379 Z M 183.858398 15.872559 L 183.858398 18.719238 L 185.045410 18.719238 Q 185.824219 18.719238 186.205566 18.370117 Q 186.586914 18.020996 186.586914 17.301270 Q 186.586914 16.608398 186.181396 16.240479 Q 185.775879 15.872559 185.002441 15.872559 Z " fill="rgb(0, 0, 0)" fill-opacity="1.000000" />
<path d="M 195.015625 19.498047 L 195.015625 19.981445 L 190.734863 19.981445 L 190.734863 20.013672 Q 190.691895 21.243652 191.204834 21.780762 Q 191.717773 22.317871 192.652344 22.317871 Q 193.125000 22.317871 193.640625 22.167480 Q 194.156250 22.017090 194.741699 21.710938 L 194.741699 22.693848 Q 194.177734 22.924805 193.654053 23.040283 Q 193.130371 23.155762 192.641602 23.155762 Q 191.239746 23.155762 190.450195 22.315186 Q 189.660645 21.474609 189.660645 19.997559 Q 189.660645 18.558105 190.434082 17.698730 Q 191.207520 16.839355 192.496582 16.839355 Q 193.645996 16.839355 194.309326 17.618164 Q 194.972656 18.396973 195.015625 19.498047 Z M 194.027344 19.208008 Q 193.962891 18.584961 193.573486 18.131104 Q 193.184082 17.677246 192.453613 17.677246 Q 191.739258 17.677246 191.277344 18.149902 Q 190.815430 18.622559 190.772461 19.213379 Z " fill="rgb(0, 0, 0)" fill-opacity="1.000000" />
<path d="M 199.770508 19.976074 L 199.442871 19.976074 Q 198.578125 19.976074 198.140381 20.279541 Q 197.702637 20.583008 197.702637 21.184570 Q 197.702637 21.727051 198.030273 22.027832 Q 198.357910 22.328613 198.937988 22.328613 Q 199.754395 22.328613 200.221680 21.761963 Q 200.688965 21.195312 200.694336 20.196289 L 200.694336 19.976074 Z M 201.687988 19.567871 L 201.687988 23.000000 L 200.694336 23.000000 L 200.694336 22.108398 Q 200.377441 22.645508 199.896729 22.900635 Q 199.416016 23.155762 198.728516 23.155762 Q 197.810059 23.155762 197.262207 22.637451 Q 196.714355 22.119141 196.714355 21.249023 Q 196.714355 20.244629 197.388428 19.723633 Q 198.062500 19.202637 199.367676 19.202637 L 200.694336 19.202637 L 200.694336 19.046875 Q 200.688965 18.327148 200.329102 18.002197 Q 199.969238 17.677246 199.179688 17.677246 Q 198.674805 17.677246 198.159180 17.822266 Q 197.643555 17.967285 197.154785 18.246582 L 197.154785 17.258301 Q 197.702637 17.048828 198.204834 16.944092 Q 198.707031 16.839355 199.179688 16.839355 Q 199.926270 16.839355 200.455322 17.059570 Q 200.984375 17.279785 201.312012 17.720215 Q 201.516113 17.988770 201.602051 18.383545 Q 201.687988 18.778320 201.687988 19.567871 Z " fill="rgb(0, 0, 0)" fill-opacity="1.000000" />
<path d="M 206.297852 15.276367 L 206.297852 16.984375 L 208.542969 16.984375 L 208.542969 17.752441 L 206.297852 17.752441 L 206.297852 21.018066 Q 206.297852 21.684082 206.550293 21.947266 Q 206.802734 22.210449 207.431152 22.210449 L 208.542969 22.210449 L 208.542969 23.000000 L 207.334473 23.000000 Q 206.222656 23.000000 205.766113 22.554199 Q 205.309570 22.108398 205.309570 21.018066 L 205.309570 17.752441 L 203.703613 17.752441 L 203.703613 16.984375 L 205.309570 16.984375 L 205.309570 15.276367 Z " fill="rgb(0, 0, 0)" fill-opacity="1.000000" />
<path d="M 211.697266 17.005859 L 214.227051 17.005859 L 214.227051 22.231934 L 216.187500 22.231934 L 216.187500 23.000000 L 211.278320 23.000000 L 211.278320 22.231934 L 213.238770 22.231934 L 213.238770 17.773926 L 211.697266 17.773926 Z M 213.238770 14.669434 L 214.227051 14.669434 L 214.227051 15.915527 L 213.238770 15.915527 Z " fill="rgb(0, 0, 0)" fill-opacity="1.000000" />
<path d="M 217.537109 16.984375 L 218.562988 16.984375 L 220.308594 22.033203 L 222.059570 16.984375 L 223.085449 16.984375 L 220.947754 23.000000 L 219.674805 23.000000 Z " fill="rgb(0, 0, 0)" fill-opacity="1.000000" />
<path d="M 230.015625 19.498047 L 230.015625 19.981445 L 225.734863 19.981445 L 225.734863 20.013672 Q 225.691895 21.243652 226.204834 21.780762 Q 226.717773 22.317871 227.652344 22.317871 Q 228.125000 22.317871 228.640625 22.167480 Q 229.156250 22.017090 229.741699 21.710938 L 229.741699 22.693848 Q 229.177734 22.924805 228.654053 23.040283 Q 228.130371 23.155762 227.641602 23.155762 Q 226.239746 23.155762 225.450195 22.315186 Q 224.660645 21.474609 224.660645 19.997559 Q 224.660645 18.558105 225.434082 17.698730 Q 226.207520 16.839355 227.496582 16.839355 Q 228.645996 16.839355 229.309326 17.618164 Q 229.972656 18.396973 230.015625 19.498047 Z M 229.027344 19.208008 Q 228.962891 18.584961 228.573486 18.131104 Q 228.184082 17.677246 227.453613 17.677246 Q 226.739258 17.677246 226.277344 18.149902 Q 225.815430 18.622559 225.772461 19.213379 Z " fill="rgb(0, 0, 0)" fill-opacity="1.000000" />
<path d="M 232.251465 14.980957 L 236.972656 14.980957 L 236.972656 15.894043 L 233.341797 15.894043 L 233.341797 18.042480 L 236.634277 18.042480 L 236.634277 18.955566 L 233.341797 18.955566 L 233.341797 23.000000 L 232.251465 23.000000 Z " fill="rgb(0, 0, 0)" fill-opacity="1.000000" />
<path d="M 241.861816 20.824707 Q 241.861816 21.490723 242.106201 21.829102 Q 242.350586 22.167480 242.828613 22.167480 L 243.983398 22.167480 L 243.983398 23.000000 L 242.731934 23.000000 Q 241.845703 23.000000 241.359619 22.433350 Q 240.873535 21.866699 240.873535 20.824707 L 240.873535 15.383789 L 239.289062 15.383789 L 239.289062 14.610352 L 241.861816 14.610352 Z " fill="rgb(0, 0, 0)" fill-opacity="1.000000" />
<path d="M 248.308594 17.677246 Q 247.556641 17.677246 247.169922 18.262695 Q 246.783203 18.848145 246.783203 19.997559 Q 246.783203 21.141602 247.169922 21.729736 Q 247.556641 22.317871 248.308594 22.317871 Q 249.065918 22.317871 249.452637 21.729736 Q 249.839355 21.141602 249.839355 19.997559 Q 249.839355 18.848145 249.452637 18.262695 Q 249.065918 17.677246 248.308594 17.677246 Z M 248.308594 16.839355 Q 249.560059 16.839355 250.223389 17.650391 Q 250.886719 18.461426 250.886719 19.997559 Q 250.886719 21.539062 250.226074 22.347412 Q 249.565430 23.155762 248.308594 23.155762 Q 247.057129 23.155762 246.396484 22.347412 Q 245.735840 21.539062 245.735840 19.997559 Q 245.735840 18.461426 246.396484 17.650391 Q 247.057129 16.839355 248.308594 16.839355 Z " fill="rgb(0, 0, 0)" fill-opacity="1.000000" />
<path d="M 252.000000 16.984375 L 252.977539 16.984375 L 254.024902 21.845215 L 254.884277 18.740723 L 255.727539 18.740723 L 256.597656 21.845215 L 257.645020 16.984375 L 258.622559 16.984375 L 257.215332 23.000000 L 256.270020 23.000000 L 255.308594 19.702148 L 254.352539 23.000000 L 253.407227 23.000000 Z " fill="rgb(0, 0, 0)" fill-opacity="1.000000" />
<path d="M 264.226074 17.193848 L 264.226074 18.160645 Q 263.801758 17.913574 263.372070 17.790039 Q 262.942383 17.666504 262.496582 17.666504 Q 261.825195 17.666504 261.494873 17.884033 Q 261.164551 18.101562 261.164551 18.547363 Q 261.164551 18.950195 261.411621 19.148926 Q 261.658691 19.347656 262.641602 19.535645 L 263.039062 19.610840 Q 263.774902 19.750488 264.153564 20.169434 Q 264.532227 20.588379 264.532227 21.259766 Q 264.532227 22.151367 263.898438 22.653564 Q 263.264648 23.155762 262.136719 23.155762 Q 261.690918 23.155762 261.202148 23.061768 Q 260.713379 22.967773 260.144043 22.779785 L 260.144043 21.759277 Q 260.697266 22.043945 261.202148 22.186279 Q 261.707031 22.328613 262.158203 22.328613 Q 262.813477 22.328613 263.173340 22.062744 Q 263.533203 21.796875 263.533203 21.318848 Q 263.533203 20.631348 262.217285 20.368164 L 262.174316 20.357422 L 261.803711 20.282227 Q 260.949707 20.115723 260.557617 19.720947 Q 260.165527 19.326172 260.165527 18.644043 Q 260.165527 17.779297 260.750977 17.309326 Q 261.336426 16.839355 262.421387 16.839355 Q 262.904785 16.839355 263.350586 16.927979 Q 263.796387 17.016602 264.226074 17.193848 Z " fill="rgb(0, 0, 0)" fill-opacity="1.000000" />
<path d="M 275.878906 26.319336 L 275.878906 12.300781 L 276.738281 12.300781 L 276.738281 26.319336 Z " fill="rgb(0, 0, 0)" fill-opacity="1.000000" />
<path d="M 279.892578 20.335938 L 279.892578 19.412109 L 286.729980 19.412109 L 286.729980 20.335938 Z " fill="rgb(0, 0, 0)" fill-opacity="1.000000" />
<path d="M 286.892578 20.335938 L 286.892578 19.412109 L 293.729980 19.412109 L 293.729980 20.335938 Z " fill="rgb(0, 0, 0)" fill-opacity="1.000000" />
<path d="M 293.892578 20.335938 L 293.892578 19.412109 L 300.729980 19.412109 L 300.729980 20.335938 Z " fill="rgb(0, 0, 0)" fill-opacity="1.000000" />
<path d="M 300.892578 20.335938 L 300.892578 19.412109 L 307.729980 19.412109 L 307.729980 20.335938 Z " fill="rgb(0, 0, 0)" fill-opacity="1.000000" />
<path d="M 307.892578 20.335938 L 307.892578 19.412109 L 314.729980 19.412109 L 314.729980 20.335938 Z " fill="rgb(0, 0, 0)" fill-opacity="1.000000" />
<path d="M 314.892578 20.335938 L 314.892578 19.412109 L 321.729980 19.412109 L 321.729980 20.335938 Z " fill="rgb(0, 0, 0)" fill-opacity="1.000000" />
<path d="M 321.892578 20.335938 L 321.892578 19.412109 L 328.729980 19.412109 L 328.729980 20.335938 Z " fill="rgb(0, 0, 0)" fill-opacity="1.000000" />
<path d="M 328.892578 20.335938 L 328.892578 19.412109 L 335.729980 19.412109 L 335.729980 20.335938 Z " fill="rgb(0, 0, 0)" fill-opacity="1.000000" />
<path d="M 338.878906 26.319336 L 338.878906 20.335938 L 335.892578 20.335938 L 335.892578 19.412109 L 339.738281 19.412109 L 339.738281 26.319336 Z " fill="rgb(0, 0, 0)" fill-opacity="1.000000" />
<path d="M 170.878906 13.319336 L 170.878906 6.412109 L 174.729980 6.412109 L 174.729980 7.335938 L 171.738281 7.335938 L 171.738281 13.319336 Z " fill="rgb(0, 0, 0)" fill-opacity="1.000000" />
<path d="M 174.892578 7.335938 L 174.892578 6.412109 L 181.729980 6.412109 L 181.729980 7.335938 Z " fill="rgb(0, 0, 0)" fill-opacity="1.000000" />
<path d="M 181.892578 7.335938 L 181.892578 6.412109 L 188.729980 6.412109 L 188.729980 7.335938 Z " fill="rgb(0, 0, 0)" fill-opacity="1.000000" />
<path d="M 188.892578 7.335938 L 188.892578 6.412109 L 195.729980 6.412109 L 195.729980 7.335938 Z " fill="rgb(0, 0, 0)" fill-opacity="1.000000" />
<path d="M 195.892578 7.335938 L 195.892578 6.412109 L 202.729980 6.412109 L 202.729980 7.335938 Z " fill="rgb(0, 0, 0)" fill-opacity="1.000000" />
<path d="M 202.892578 7.335938 L 202.892578 6.412109 L 209.729980 6.412109 L 209.729980 7.335938 Z " fill="rgb(0, 0, 0)" fill-opacity="1.000000" />
<path d="M 209.892578 7.335938 L 209.892578 6.412109 L 216.729980 6.412109 L 216.729980 7.335938 Z " fill="rgb(0, 0, 0)" fill-opacity="1.000000" />
<path d="M 216.892578 7.335938 L 216.892578 6.412109 L 223.729980 6.412109 L 223.729980 7.335938 Z " fill="rgb(0, 0, 0)" fill-opacity="1.000000" />
<path d="M 223.892578 7.335938 L 223.892578 6.412109 L 230.729980 6.412109 L 230.729980 7.335938 Z " fill="rgb(0, 0, 0)" fill-opacity="1.000000" />
<path d="M 230.892578 7.335938 L 230.892578 6.412109 L 237.729980 6.412109 L 237.729980 7.335938 Z " fill="rgb(0, 0, 0)" fill-opacity="1.000000" />
<path d="M 237.892578 7.335938 L 237.892578 6.412109 L 244.729980 6.412109 L 244.729980 7.335938 Z " fill="rgb(0, 0, 0)" fill-opacity="1.000000" />
<path d="M 244.892578 7.335938 L 244.892578 6.412109 L 251.729980 6.412109 L 251.729980 7.335938 Z " fill="rgb(0, 0, 0)" fill-opacity="1.000000" />
<path d="M 251.892578 7.335938 L 251.892578 6.412109 L 258.729980 6.412109 L 258.729980 7.335938 Z " fill="rgb(0, 0, 0)" fill-opacity="1.000000" />
<path d="M 258.892578 7.335938 L 258.892578 6.412109 L 265.729980 6.412109 L 265.729980 7.335938 Z " fill="rgb(0, 0, 0)" fill-opacity="1.000000" />
<path d="M 265.892578 7.335938 L 265.892578 6.412109 L 272.729980 6.412109 L 272.729980 7.335938 Z " fill="rgb(0, 0, 0)" fill-opacity="1.000000" />
<path d="M 275.878906 13.319336 L 275.878906 7.335938 L 272.892578 7.335938 L 272.892578 6.412109 L 276.738281 6.412109 L 276.738281 13.319336 Z " fill="rgb(0, 0, 0)" fill-opacity="1.000000" />
</svg>